<svg width="24" height="24" viewBox="0 0 24 24" fill="none" xmlns="http://www.w3.org/2000/svg">
<mask id="mask0_326_501" style="mask-type:alpha" maskUnits="userSpaceOnUse" x="0" y="0" width="24" height="24">
<rect width="24" height="24" fill="#D9D9D9"/>
</mask>
<g mask="url(#mask0_326_501)">
<path d="M4.904 8.75C4.64783 8.75 4.43317 8.66333 4.26 8.49C4.08667 8.31683 4 8.10225 4 7.84625V5.90375C4 5.64775 4.08667 5.43308 4.26 5.25975C4.43317 5.08658 4.64783 5 4.904 5H6.84625C7.10225 5 7.31692 5.08658 7.49025 5.25975C7.66342 5.43308 7.75 5.64775 7.75 5.90375V7.84625C7.75 8.10225 7.66342 8.31683 7.49025 8.49C7.31692 8.66333 7.10225 8.75 6.84625 8.75H4.904ZM9.44225 8.75C9.18625 8.75 8.97158 8.66333 8.79825 8.49C8.62508 8.31683 8.5385 8.10225 8.5385 7.84625V5.90375C8.5385 5.64775 8.62508 5.43308 8.79825 5.25975C8.97158 5.08658 9.18625 5 9.44225 5H20.096C20.3522 5 20.5668 5.08658 20.74 5.25975C20.9133 5.43308 21 5.64775 21 5.90375V7.84625C21 8.10225 20.9133 8.31683 20.74 8.49C20.5668 8.66333 20.3522 8.75 20.096 8.75H9.44225ZM9.44225 14.2115C9.18625 14.2115 8.97158 14.1248 8.79825 13.9515C8.62508 13.7783 8.5385 13.5637 8.5385 13.3075V11.4423C8.5385 11.1861 8.62508 10.9714 8.79825 10.7982C8.97158 10.6251 9.18625 10.5385 9.44225 10.5385H20.096C20.3522 10.5385 20.5668 10.6251 20.74 10.7982C20.9133 10.9714 21 11.1861 21 11.4423V13.3075C21 13.5637 20.9133 13.7783 20.74 13.9515C20.5668 14.1248 20.3522 14.2115 20.096 14.2115H9.44225ZM9.44225 19.75C9.18625 19.75 8.97158 19.6633 8.79825 19.49C8.62508 19.3168 8.5385 19.1022 8.5385 18.846V16.9038C8.5385 16.6476 8.62508 16.4329 8.79825 16.2598C8.97158 16.0866 9.18625 16 9.44225 16H20.096C20.3522 16 20.5668 16.0866 20.74 16.2598C20.9133 16.4329 21 16.6476 21 16.9038V18.846C21 19.1022 20.9133 19.3168 20.74 19.49C20.5668 19.6633 20.3522 19.75 20.096 19.75H9.44225ZM4.904 19.75C4.64783 19.75 4.43317 19.6633 4.26 19.49C4.08667 19.3168 4 19.1022 4 18.846V16.9038C4 16.6476 4.08667 16.4329 4.26 16.2598C4.43317 16.0866 4.64783 16 4.904 16H6.84625C7.10225 16 7.31692 16.0866 7.49025 16.2598C7.66342 16.4329 7.75 16.6476 7.75 16.9038V18.846C7.75 19.1022 7.66342 19.3168 7.49025 19.49C7.31692 19.6633 7.10225 19.75 6.84625 19.75H4.904ZM4.904 14.2115C4.64783 14.2115 4.43317 14.1248 4.26 13.9515C4.08667 13.7783 4 13.5637 4 13.3075V11.4423C4 11.1861 4.08667 10.9714 4.26 10.7982C4.43317 10.6251 4.64783 10.5385 4.904 10.5385H6.84625C7.10225 10.5385 7.31692 10.6251 7.49025 10.7982C7.66342 10.9714 7.75 11.1861 7.75 11.4423V13.3075C7.75 13.5637 7.66342 13.7783 7.49025 13.9515C7.31692 14.1248 7.10225 14.2115 6.84625 14.2115H4.904Z" fill="#B2B2B2"/>
<path d="M8.79825 19.49C8.97158 19.6633 9.18625 19.75 9.44225 19.75H20.096C20.3522 19.75 20.5668 19.6633 20.74 19.49C20.9133 19.3168 21 19.1022 21 18.846V16.9038C21 16.6476 20.9133 16.4329 20.74 16.2598C20.5668 16.0866 20.3522 16 20.096 16H9.44225C9.18625 16 8.97158 16.0866 8.79825 16.2598C8.62508 16.4329 8.5385 16.6476 8.5385 16.9038V18.846C8.5385 19.1022 8.62508 19.3168 8.79825 19.49Z" fill="#B2B2B2"/>
<path d="M4.26 19.49C4.43317 19.6633 4.64783 19.75 4.904 19.75H6.84625C7.10225 19.75 7.31692 19.6633 7.49025 19.49C7.66342 19.3168 7.75 19.1022 7.75 18.846V16.9038C7.75 16.6476 7.66342 16.4329 7.49025 16.2598C7.31692 16.0866 7.10225 16 6.84625 16H4.904C4.64783 16 4.43317 16.0866 4.26 16.2598C4.08667 16.4329 4 16.6476 4 16.9038V18.846C4 19.1022 4.08667 19.3168 4.26 19.49Z" fill="#B2B2B2"/>
</g>
</svg>
